<svg width="62" height="62" viewBox="0 0 62 62" fill="none" xmlns="http://www.w3.org/2000/svg">
<rect x="0.495117" y="0.515137" width="61" height="61" rx="20" fill="#8247FF"/>
<path d="M30.9952 17.0151C28.2105 17.0151 25.5397 18.1214 23.5706 20.0905C21.6015 22.0596 20.4952 24.7304 20.4952 27.5151V33.7906L19.258 35.0279C19.0133 35.2726 18.8467 35.5844 18.7792 35.9238C18.7117 36.2632 18.7464 36.6151 18.8788 36.9348C19.0112 37.2545 19.2355 37.5278 19.5232 37.7201C19.8109 37.9124 20.1492 38.0151 20.4952 38.0151H41.4952C41.8413 38.0151 42.1796 37.9124 42.4673 37.7201C42.755 37.5278 42.9792 37.2545 43.1117 36.9348C43.2441 36.6151 43.2787 36.2632 43.2113 35.9238C43.1438 35.5844 42.9772 35.2726 42.7325 35.0279L41.4952 33.7906V27.5151C41.4952 24.7304 40.389 22.0596 38.4199 20.0905C36.4507 18.1214 33.78 17.0151 30.9952 17.0151ZM30.9952 45.0151C29.6028 45.0151 28.2675 44.462 27.2829 43.4774C26.2984 42.4929 25.7452 41.1575 25.7452 39.7651H36.2452C36.2452 41.1575 35.6921 42.4929 34.7075 43.4774C33.723 44.462 32.3876 45.0151 30.9952 45.0151Z" fill="#FDF2EC"/>
</svg>
