<svg width="25" height="25" viewBox="0 0 25 25" fill="none" xmlns="http://www.w3.org/2000/svg">
<path fill-rule="evenodd" clip-rule="evenodd" d="M12.7245 21.69C15.2706 21.69 17.7124 20.6786 19.5127 18.8782C21.3131 17.0779 22.3245 14.6361 22.3245 12.09C22.3245 9.54391 21.3131 7.10211 19.5127 5.30177C17.7124 3.50142 15.2706 2.48999 12.7245 2.48999C10.1784 2.48999 7.73664 3.50142 5.93629 5.30177C4.13594 7.10211 3.12451 9.54391 3.12451 12.09C3.12451 14.6361 4.13594 17.0779 5.93629 18.8782C7.73664 20.6786 10.1784 21.69 12.7245 21.69ZM12.1905 8.69159C12.0098 8.57102 11.7997 8.50176 11.5827 8.49122C11.3657 8.48068 11.1499 8.52925 10.9584 8.63174C10.7668 8.73423 10.6067 8.88681 10.4951 9.07318C10.3834 9.25955 10.3245 9.47274 10.3245 9.68999V14.49C10.3245 14.7072 10.3834 14.9204 10.4951 15.1068C10.6067 15.2932 10.7668 15.4457 10.9584 15.5482C11.1499 15.6507 11.3657 15.6993 11.5827 15.6888C11.7997 15.6782 12.0098 15.609 12.1905 15.4884L15.7905 13.0884C15.9549 12.9788 16.0896 12.8303 16.1828 12.6562C16.276 12.482 16.3248 12.2875 16.3248 12.09C16.3248 11.8925 16.276 11.698 16.1828 11.5238C16.0896 11.3496 15.9549 11.2012 15.7905 11.0916L12.1905 8.69159Z" fill="#1C1C1C"/>
</svg>
