<svg width="24" height="25" viewBox="0 0 24 25" fill="none" xmlns="http://www.w3.org/2000/svg">
<path fill-rule="evenodd" clip-rule="evenodd" d="M20.0484 7.32205C20.2734 7.54708 20.3997 7.85225 20.3997 8.17045C20.3997 8.48864 20.2734 8.79381 20.0484 9.01885L10.4484 18.6188C10.2234 18.8438 9.9182 18.9702 9.6 18.9702C9.2818 18.9702 8.97663 18.8438 8.7516 18.6188L3.9516 13.8188C3.73301 13.5925 3.61206 13.2894 3.61479 12.9748C3.61753 12.6601 3.74373 12.3592 3.96622 12.1367C4.18871 11.9142 4.48968 11.788 4.80432 11.7852C5.11895 11.7825 5.42208 11.9035 5.6484 12.122L9.6 16.0736L18.3516 7.32205C18.5766 7.09708 18.8818 6.9707 19.2 6.9707C19.5182 6.9707 19.8234 7.09708 20.0484 7.32205Z" fill="#43D67E"/>
</svg>
