<svg width="104" height="25" viewBox="0 0 104 25" fill="none" xmlns="http://www.w3.org/2000/svg">
<g clip-path="url(#clip0_13_457)">
<path d="M9 12.7598C9 11.1028 10.343 9.75977 12 9.75977C13.657 9.75977 15 11.1028 15 12.7598C15 14.4168 13.657 15.7598 12 15.7598C10.343 15.7598 9 14.4168 9 12.7598Z" fill="#1C1C1C"/>
<path d="M16.125 3.38477H7.875C4.976 3.38477 2.625 5.73577 2.625 8.63477V16.8848C2.625 19.7838 4.976 22.1348 7.875 22.1348H16.125C19.024 22.1348 21.375 19.7838 21.375 16.8848V8.63477C21.375 5.73577 19.024 3.38477 16.125 3.38477ZM12 17.2598C9.515 17.2598 7.5 15.2448 7.5 12.7598C7.5 10.2748 9.515 8.25977 12 8.25977C14.485 8.25977 16.5 10.2748 16.5 12.7598C16.5 15.2448 14.485 17.2598 12 17.2598ZM16.875 9.00977C16.254 9.00977 15.75 8.50577 15.75 7.88477C15.75 7.26377 16.254 6.75977 16.875 6.75977C17.496 6.75977 18 7.26377 18 7.88477C18 8.50577 17.496 9.00977 16.875 9.00977Z" fill="#1C1C1C"/>
</g>
<g clip-path="url(#clip1_13_457)">
<path d="M59.3651 22.2002H44.7951C43.5721 22.2002 42.5801 21.2082 42.5801 19.9852V5.4152C42.5801 4.1922 43.5721 3.2002 44.7951 3.2002H59.3651C60.5881 3.2002 61.5801 4.1922 61.5801 5.4152V19.9852C61.5801 21.2082 60.5881 22.2002 59.3651 22.2002Z" fill="#1C1C1C"/>
<path d="M45.3982 6.85645L50.5042 13.6844L45.3652 19.2354H46.5222L51.0212 14.3754L54.6562 19.2354H58.5922L53.1982 12.0234L57.9812 6.85645H56.8252L52.6812 11.3324L49.3332 6.85645H45.3982ZM47.0982 7.70845H48.9072L56.8912 18.3834H55.0832L47.0982 7.70845Z" fill="white"/>
</g>
<g clip-path="url(#clip2_13_457)">
<path d="M101.908 22.7598L101.913 22.7588V15.4238C101.913 11.8358 101.14 9.07177 96.9451 9.07177C94.9291 9.07177 93.5751 10.1778 93.0231 11.2268H92.9641V9.40677H88.9871V22.7588H93.1291V16.1468C93.1291 14.4068 93.4591 12.7228 95.6141 12.7228C97.7391 12.7228 97.7701 14.7098 97.7701 16.2588V22.7598H101.908ZM82.2431 9.40777H86.3891V22.7598H82.2431V9.40777ZM84.3141 2.75977C82.9891 2.75977 81.9131 3.83577 81.9131 5.16177C81.9131 6.48777 82.9891 7.58577 84.3141 7.58577C85.6401 7.58577 86.7161 6.48777 86.7161 5.16177C86.7151 3.83577 85.6401 2.76077 84.3141 2.75977Z" fill="black"/>
</g>
<defs>
<clipPath id="clip0_13_457">
<rect width="24" height="24" fill="white" transform="translate(0 0.759766)"/>
</clipPath>
<clipPath id="clip1_13_457">
<rect width="24" height="24" fill="white" transform="translate(40 0.759766)"/>
</clipPath>
<clipPath id="clip2_13_457">
<rect width="24" height="24" fill="white" transform="translate(80 0.759766)"/>
</clipPath>
</defs>
</svg>
