<svg width="364" height="109" viewBox="0 0 364 109" fill="none" xmlns="http://www.w3.org/2000/svg">
<path d="M64.0562 41.9839C64.0562 35.6889 69.2082 30.5859 75.5632 30.5859H288.437C294.792 30.5859 299.944 35.6889 299.944 41.9839V69.1009C299.944 75.3959 294.792 80.4989 288.437 80.4989H188.357L182 86.6239L175.553 80.4989H75.5632C69.2082 80.4989 64.0562 75.3959 64.0562 69.1009V41.9839Z" fill="black" stroke="black" stroke-width="1.48" stroke-miterlimit="10"/>
<path d="M64.0562 41.9839C64.0562 35.6889 69.2082 30.5859 75.5632 30.5859H288.437C294.792 30.5859 299.944 35.6889 299.944 41.9839V69.1009C299.944 75.3959 294.792 80.4989 288.437 80.4989H188.357L182 86.6239L175.553 80.4989H75.5632C69.2082 80.4989 64.0562 75.3959 64.0562 69.1009V41.9839Z" fill="white" stroke="#EDEDFA" stroke-width="1.48" stroke-miterlimit="10"/>
</svg>
