<svg width="62" height="62" viewBox="0 0 62 62" fill="none" xmlns="http://www.w3.org/2000/svg">
<rect x="0.820312" y="0.515137" width="61" height="61" rx="20" fill="#8247FF"/>
<path fill-rule="evenodd" clip-rule="evenodd" d="M35.5116 17.983C35.4007 17.7608 35.2437 17.5648 35.0512 17.4079C34.8587 17.2511 34.6349 17.137 34.3949 17.0733C34.1549 17.0095 33.9041 16.9976 33.6591 17.0383C33.4141 17.079 33.1806 17.1714 32.9741 17.3093C32.3703 17.7118 31.8996 18.2858 31.5356 18.8493C31.1611 19.4268 30.8303 20.097 30.5381 20.8023C29.9536 22.2093 29.4636 23.8963 29.0681 25.5868C28.5898 27.6526 28.2316 29.7445 27.9953 31.8518C27.2833 31.3927 26.7112 30.7468 26.3416 29.9845C25.7676 28.7945 25.6451 27.3 25.6451 25.34C25.645 24.9939 25.5423 24.6557 25.35 24.368C25.1577 24.0802 24.8844 23.856 24.5647 23.7236C24.245 23.5911 23.8932 23.5565 23.5538 23.624C23.2143 23.6915 22.9026 23.8581 22.6578 24.1028C21.5189 25.2393 20.6156 26.5896 20 28.0761C19.3843 29.5627 19.0684 31.1562 19.0703 32.7653C19.0705 34.7797 19.5674 36.7631 20.5171 38.5396C21.4668 40.3161 22.84 41.831 24.515 42.9502C26.19 44.0693 28.1152 44.758 30.1199 44.9554C32.1247 45.1528 34.1472 44.8528 36.0083 44.0818C37.8694 43.3109 39.5117 42.0929 40.7897 40.5357C42.0676 38.9785 42.9418 37.1302 43.3349 35.1545C43.7279 33.1787 43.6277 31.1365 43.043 29.2088C42.4583 27.2811 41.4072 25.5273 39.9828 24.1028C38.9468 23.0685 38.2678 22.379 37.6238 21.5355C36.9886 20.7025 36.3568 19.6753 35.5116 17.983ZM35.0303 39.9753C34.2961 40.7085 33.3611 41.2078 32.3433 41.41C31.3255 41.6122 30.2706 41.5082 29.3119 41.1113C28.3531 40.7143 27.5335 40.0421 26.9566 39.1796C26.3796 38.3171 26.0712 37.3029 26.0703 36.2653C26.0703 36.2653 27.6086 37.1403 30.4453 37.1403C30.4453 35.3903 31.3203 30.1403 32.6328 29.2653C33.5078 31.0153 34.0083 31.528 35.0321 32.5535C35.5204 33.0403 35.9077 33.6189 36.1717 34.2558C36.4356 34.8928 36.5711 35.5757 36.5703 36.2653C36.5711 36.9548 36.4356 37.6377 36.1717 38.2747C35.9077 38.9116 35.5204 39.4902 35.0321 39.977L35.0303 39.9753Z" fill="#FDF2EC"/>
</svg>
