<svg width="62" height="62" viewBox="0 0 62 62" fill="none" xmlns="http://www.w3.org/2000/svg">
<rect x="0.165039" y="0.515137" width="61" height="61" rx="20" fill="#8247FF"/>
<path fill-rule="evenodd" clip-rule="evenodd" d="M25.415 17.0151C24.4868 17.0151 23.5965 17.3839 22.9402 18.0403C22.2838 18.6966 21.915 19.5869 21.915 20.5151V41.5151C21.915 42.4434 22.2838 43.3336 22.9402 43.99C23.5965 44.6464 24.4868 45.0151 25.415 45.0151H35.915C36.8433 45.0151 37.7335 44.6464 38.3899 43.99C39.0463 43.3336 39.415 42.4434 39.415 41.5151V20.5151C39.415 19.5869 39.0463 18.6966 38.3899 18.0403C37.7335 17.3839 36.8433 17.0151 35.915 17.0151H25.415ZM30.665 41.5151C31.1292 41.5151 31.5743 41.3308 31.9025 41.0026C32.2307 40.6744 32.415 40.2293 32.415 39.7651C32.415 39.301 32.2307 38.8559 31.9025 38.5277C31.5743 38.1995 31.1292 38.0151 30.665 38.0151C30.2009 38.0151 29.7558 38.1995 29.4276 38.5277C29.0994 38.8559 28.915 39.301 28.915 39.7651C28.915 40.2293 29.0994 40.6744 29.4276 41.0026C29.7558 41.3308 30.2009 41.5151 30.665 41.5151Z" fill="#FDF2EC"/>
</svg>
